<svg viewBox="120 55 160 275" fill="none" xmlns="http://www.w3.org/2000/svg" role="img">
<title>Diaconescu Partners — Cabinet de Avocat</title>

<!-- Shield outline -->
<path d="M200 60 L260 80 L260 135 Q260 175 200 195 Q140 175 140 135 L140 80 Z" fill="none" stroke="#b8975a" stroke-width="1.2"/>
<path d="M200 68 L254 86 L254 133 Q254 169 200 187 Q146 169 146 133 L146 86 Z" fill="none" stroke="#b8975a" stroke-width="0.4" opacity="0.35"/>

<!-- Scales of justice inside shield -->
<line x1="200" y1="90" x2="200" y2="150" stroke="#b8975a" stroke-width="1"/>
<line x1="172" y1="100" x2="228" y2="100" stroke="#b8975a" stroke-width="1"/>
<line x1="176" y1="100" x2="172" y2="120" stroke="#b8975a" stroke-width="0.7"/>
<line x1="172" y1="100" x2="168" y2="120" stroke="#b8975a" stroke-width="0.7"/>
<line x1="224" y1="100" x2="228" y2="120" stroke="#b8975a" stroke-width="0.7"/>
<line x1="228" y1="100" x2="232" y2="120" stroke="#b8975a" stroke-width="0.7"/>
<path d="M164 120 Q170 128 176 120" stroke="#b8975a" stroke-width="0.9" fill="none"/>
<path d="M224 120 Q230 128 236 120" stroke="#b8975a" stroke-width="0.9" fill="none"/>
<circle cx="200" cy="90" r="2.5" fill="#b8975a"/>
<rect x="194" y="150" width="12" height="1.5" fill="#b8975a" opacity="0.5"/>
<rect x="191" y="152" width="18" height="1" fill="#b8975a" opacity="0.3"/>

<!-- Decorative rule -->
<line x1="120" y1="215" x2="280" y2="215" stroke="#b8975a" stroke-width="0.4" opacity="0.4"/>

<!-- DIACONESCU -->
<text x="200" y="248" text-anchor="middle" font-family="Cinzel, serif" font-size="20" font-weight="600" fill="#f5f2ec" letter-spacing="6">DIACONESCU</text>

<!-- Thin rule -->
<line x1="148" y1="260" x2="252" y2="260" stroke="#b8975a" stroke-width="0.4" opacity="0.3"/>

<!-- PARTNERS -->
<text x="200" y="280" text-anchor="middle" font-family="Cinzel, serif" font-size="9" font-weight="400" fill="#b8975a" letter-spacing="9">PARTNERS</text>

<!-- Subtitle rule -->
<line x1="125" y1="298" x2="275" y2="298" stroke="#b8975a" stroke-width="0.3" opacity="0.2"/>

<!-- CABINET DE AVOCAT -->
<text x="200" y="318" text-anchor="middle" font-family="Cinzel, serif" font-size="7.5" font-weight="400" fill="rgba(184,151,90,0.6)" letter-spacing="4.5">CABINET DE AVOCAT</text>
</svg>
