<svg viewBox="100 65 170 310" fill="none" xmlns="http://www.w3.org/2000/svg" role="img">
<title>Diaconescu Partners — Cabinet Individual de Insolvență</title>

<!-- Left wing -->
<path d="M185 185 L155 170 L125 162 L110 155 L118 148" fill="none" stroke="#b8975a" stroke-width="1.3" stroke-linejoin="bevel"/>
<path d="M185 192 L150 178 L120 172 L105 168" fill="none" stroke="#b8975a" stroke-width="0.7" stroke-linejoin="bevel" opacity="0.4"/>
<line x1="155" y1="170" x2="148" y2="158" stroke="#b8975a" stroke-width="0.5" opacity="0.35"/>
<line x1="135" y1="164" x2="130" y2="153" stroke="#b8975a" stroke-width="0.5" opacity="0.3"/>
<path d="M118 148 L108 140 L112 148" fill="none" stroke="#b8975a" stroke-width="0.8" opacity="0.6"/>

<!-- Right wing -->
<path d="M185 185 L215 170 L245 162 L260 155 L252 148" fill="none" stroke="#b8975a" stroke-width="1.3" stroke-linejoin="bevel"/>
<path d="M185 192 L220 178 L250 172 L265 168" fill="none" stroke="#b8975a" stroke-width="0.7" stroke-linejoin="bevel" opacity="0.4"/>
<line x1="215" y1="170" x2="222" y2="158" stroke="#b8975a" stroke-width="0.5" opacity="0.35"/>
<line x1="235" y1="164" x2="240" y2="153" stroke="#b8975a" stroke-width="0.5" opacity="0.3"/>
<path d="M252 148 L262 140 L258 148" fill="none" stroke="#b8975a" stroke-width="0.8" opacity="0.6"/>

<!-- Body -->
<line x1="185" y1="230" x2="185" y2="125" stroke="#b8975a" stroke-width="2"/>

<!-- Head -->
<path d="M185 115 L190 122 L185 129 L180 122 Z" fill="#b8975a" opacity="0.8"/>

<!-- Crown spires -->
<line x1="178" y1="115" x2="174" y2="92" stroke="#b8975a" stroke-width="0.9" stroke-linecap="square"/>
<line x1="185" y1="112" x2="185" y2="82" stroke="#b8975a" stroke-width="1.1" stroke-linecap="square"/>
<line x1="192" y1="115" x2="196" y2="92" stroke="#b8975a" stroke-width="0.9" stroke-linecap="square"/>
<path d="M174 92 L176 88 L174 84 L172 88 Z" fill="#b8975a" opacity="0.5"/>
<path d="M185 82 L187.5 77 L185 72 L182.5 77 Z" fill="#b8975a" opacity="0.6"/>
<path d="M196 92 L198 88 L196 84 L194 88 Z" fill="#b8975a" opacity="0.5"/>

<!-- Tail flames -->
<path d="M185 230 L177 252 L185 248 L193 252 Z" fill="#b8975a" opacity="0.5"/>
<path d="M185 248 L175 272 L185 266 L195 272 Z" fill="#b8975a" opacity="0.35"/>
<path d="M185 266 L178 286 L185 282 L192 286 Z" fill="#b8975a" opacity="0.2"/>
<path d="M177 252 L168 262 L175 258" fill="none" stroke="#b8975a" stroke-width="0.6" opacity="0.3"/>
<path d="M193 252 L202 262 L195 258" fill="none" stroke="#b8975a" stroke-width="0.6" opacity="0.3"/>

<!-- Ember particles -->
<path d="M165 105 L167 102 L165 99 L163 102 Z" fill="#b8975a" opacity="0.15"/>
<path d="M208 100 L210 97 L208 94 L206 97 Z" fill="#b8975a" opacity="0.12"/>
<path d="M170 85 L171.5 83 L170 81 L168.5 83 Z" fill="#b8975a" opacity="0.1"/>
<path d="M202 88 L203.5 86 L202 84 L200.5 86 Z" fill="#b8975a" opacity="0.1"/>

<!-- Typography -->
<line x1="115" y1="310" x2="255" y2="310" stroke="#b8975a" stroke-width="0.4" opacity="0.3"/>
<text x="185" y="328" text-anchor="middle" font-family="Cinzel, serif" font-size="13" font-weight="600" fill="#f5f2ec" letter-spacing="4">DIACONESCU</text>
<line x1="145" y1="336" x2="225" y2="336" stroke="#b8975a" stroke-width="0.3" opacity="0.2"/>
<text x="185" y="350" text-anchor="middle" font-family="Cinzel, serif" font-size="6.5" font-weight="400" fill="#b8975a" letter-spacing="7">PARTNERS</text>
<text x="185" y="368" text-anchor="middle" font-family="Cinzel, serif" font-size="5" font-weight="400" fill="rgba(184,151,90,0.55)" letter-spacing="2.5">CABINET INDIVIDUAL DE INSOLVENȚĂ</text>
</svg>
