<svg width="24" height="24" viewBox="0 0 24 24" fill="none" xmlns="http://www.w3.org/2000/svg">
  <path d="M12 2.5 L20.5 6 V12.5 C20.5 17.2 16.8 21.3 12 22.8 C7.2 21.3 3.5 17.2 3.5 12.5 V6 Z" stroke="currentColor" stroke-width="1.2" stroke-linejoin="round"/>
  <line x1="7.5" y1="10.5" x2="16.5" y2="10.5" stroke="currentColor" stroke-width="0.9" stroke-linecap="round"/>
  <line x1="12" y1="8" x2="12" y2="16.5" stroke="currentColor" stroke-width="0.9" stroke-linecap="round"/>
  <circle cx="12" cy="8" r="0.9" fill="currentColor"/>
  <line x1="10" y1="17" x2="14" y2="17" stroke="currentColor" stroke-width="0.9" stroke-linecap="round"/>
  <line x1="8.5" y1="11" x2="7.5" y2="14.2" stroke="currentColor" stroke-width="0.7"/>
  <line x1="8.5" y1="11" x2="10.5" y2="14.2" stroke="currentColor" stroke-width="0.7"/>
  <path d="M6.8 14.2 Q9 16.5 11.2 14.2" stroke="currentColor" stroke-width="0.85" stroke-linecap="round" fill="none"/>
  <line x1="15.5" y1="11" x2="13.5" y2="14.2" stroke="currentColor" stroke-width="0.7"/>
  <line x1="15.5" y1="11" x2="16.5" y2="14.2" stroke="currentColor" stroke-width="0.7"/>
  <path d="M12.8 14.2 Q15 16.5 17.2 14.2" stroke="currentColor" stroke-width="0.85" stroke-linecap="round" fill="none"/>
</svg>
